<svg xmlns="http://www.w3.org/2000/svg" width="200" height="63.5" viewBox="0 0 200 63.5">
  <defs>
    <style>
      .a {
        fill: none;
      }

      .b {
        fill: #b5232c;
      }

      .c {
        fill: #004981;
      }

      .d {
        fill: #097b4b;
      }
    </style>
  </defs>
  <g>
    <rect class="a" width="200" height="63.5"/>
    <path class="b" d="M28.3,16.7a17.661,17.661,0,0,0-12.3,5V4H1.9V57H16V53.5a18.112,18.112,0,0,0,12.3,5c10.5,0,19-9.4,19-20.9S38.9,16.7,28.3,16.7ZM24.6,44.3a6.7,6.7,0,1,1,6.7-6.7A6.7,6.7,0,0,1,24.6,44.3Z"/>
    <path class="c" d="M92.1,52a4.349,4.349,0,0,0-.6.7,20.448,20.448,0,0,1-15,6.6c-11.5,0-20.9-9.7-20.9-21.6S65,16,76.5,16a20.547,20.547,0,0,1,10.8,3.1,20.923,20.923,0,0,0-5.6,9.5,9.737,9.737,0,0,0-3.4-.6,9.3,9.3,0,1,0,8.3,13.6A21.057,21.057,0,0,0,92.1,52Z"/>
    <path class="d" d="M115.3,17.5A21.287,21.287,0,0,0,92.1,52c.7.7,1.5,1.4,2.3,2.1a21.242,21.242,0,0,0,26-33.6,16.344,16.344,0,0,0-5.1-3Zm-7.8,26.1a6.3,6.3,0,1,1,6.3-6.3A6.338,6.338,0,0,1,107.5,43.6Z"/>
    <path class="c" d="M198,35l-11.4,5.5a10.262,10.262,0,0,1-9.7,7.6,9.812,9.812,0,0,1-8-4.1l17.8-8.8h0l10-4.3c-2-5.8-6.3-11.2-11.9-13.4A21.287,21.287,0,0,0,161.6,52a23.972,23.972,0,0,0,2.3,2.1,21.253,21.253,0,0,0,34.3-16.8A16.413,16.413,0,0,0,198,35Zm-31.2,2.6a10.2,10.2,0,0,1,10.1-10.4,9.782,9.782,0,0,1,6.5,2.5l-16.6,8.2Z"/>
    <path class="b" d="M156.4,17.5V29.9a11.64,11.64,0,0,0-6.4-.3,9.214,9.214,0,0,0-7,7.3L142.2,57H128.8V18.9h13.4v6.2c2.1-4.6,6.3-7.7,11.2-7.7A15.062,15.062,0,0,1,156.4,17.5Z"/>
  </g>
</svg>
